<?xml version="1.0" encoding="UTF-8" standalone="no"?>
<!-- Created with Inkscape (http://www.inkscape.org/) -->

<svg
   xmlns:dc="http://purl.org/dc/elements/1.1/"
   xmlns:cc="http://creativecommons.org/ns#"
   xmlns:rdf="http://www.w3.org/1999/02/22-rdf-syntax-ns#"
   xmlns:svg="http://www.w3.org/2000/svg"
   xmlns="http://www.w3.org/2000/svg"
   xmlns:sodipodi="http://sodipodi.sourceforge.net/DTD/sodipodi-0.dtd"
   xmlns:inkscape="http://www.inkscape.org/namespaces/inkscape"
   width="86.015564"
   height="5.7010484"
   id="svg2"
   version="1.1"
   inkscape:version="0.92.1 r15371"
   sodipodi:docname="MODAbanner5.svg">
  <defs
     id="defs4">
    <filter
       id="filter3012"
       inkscape:label="Desaturate"
       x="0"
       y="0"
       width="1"
       height="1"
       inkscape:menu="Color"
       inkscape:menu-tooltip="Render in shades of gray by reducing saturation to zero"
       style="color-interpolation-filters:sRGB">
      <feColorMatrix
         id="feColorMatrix3014"
         type="saturate"
         values="0" />
    </filter>
    <filter
       id="filter3012-1"
       inkscape:label="Desaturate"
       x="0"
       y="0"
       width="1"
       height="1"
       inkscape:menu="Color"
       inkscape:menu-tooltip="Render in shades of gray by reducing saturation to zero"
       style="color-interpolation-filters:sRGB">
      <feColorMatrix
         id="feColorMatrix3014-7"
         type="saturate"
         values="0" />
    </filter>
    <clipPath
       clipPathUnits="userSpaceOnUse"
       id="clipPath3031-0">
      <rect
         style="fill:#000000;fill-opacity:1;stroke:none"
         id="rect3033-9"
         width="49.828564"
         height="16.3624"
         x="2.9220474"
         y="1023.6879" />
    </clipPath>
    <filter
       id="filter3012-1-4"
       inkscape:label="Desaturate"
       x="0"
       y="0"
       width="1"
       height="1"
       inkscape:menu="Color"
       inkscape:menu-tooltip="Render in shades of gray by reducing saturation to zero"
       style="color-interpolation-filters:sRGB">
      <feColorMatrix
         id="feColorMatrix3014-7-8"
         type="saturate"
         values="0" />
    </filter>
    <clipPath
       clipPathUnits="userSpaceOnUse"
       id="clipPath3066">
      <rect
         y="1023.5985"
         x="53.845749"
         height="16.3624"
         width="49.828564"
         id="rect3068"
         style="fill:#000000;fill-opacity:1;stroke:none" />
    </clipPath>
    <clipPath
       clipPathUnits="userSpaceOnUse"
       id="clipPath3904">
      <rect
         style="fill:#ffffff;fill-opacity:1;stroke:#ffffff;stroke-width:0.53690487;stroke-miterlimit:4;stroke-dasharray:none;stroke-dashoffset:0;stroke-opacity:1"
         id="rect3906"
         width="24.313906"
         height="23.000002"
         x="-12.616835"
         y="937.58295" />
    </clipPath>
  </defs>
  <sodipodi:namedview
     id="base"
     pagecolor="#ffffff"
     bordercolor="#666666"
     borderopacity="1.0"
     inkscape:pageopacity="0.0"
     inkscape:pageshadow="2"
     inkscape:zoom="45.254836"
     inkscape:cx="12.465035"
     inkscape:cy="2.3702495"
     inkscape:document-units="px"
     inkscape:current-layer="layer1"
     showgrid="false"
     units="mm"
     inkscape:window-width="1920"
     inkscape:window-height="1017"
     inkscape:window-x="1912"
     inkscape:window-y="-8"
     inkscape:window-maximized="1"
     showguides="true"
     inkscape:guide-bbox="true"
     fit-margin-top="0"
     fit-margin-left="0"
     fit-margin-right="0"
     fit-margin-bottom="0" />
  <metadata
     id="metadata7">
    <rdf:RDF>
      <cc:Work
         rdf:about="">
        <dc:format>image/svg+xml</dc:format>
        <dc:type
           rdf:resource="http://purl.org/dc/dcmitype/StillImage" />
        <dc:title></dc:title>
      </cc:Work>
    </rdf:RDF>
  </metadata>
  <g
     inkscape:label="Layer 1"
     inkscape:groupmode="layer"
     id="layer1"
     transform="translate(2.4144282,-1019.0701)">
    <rect
       style="opacity:1;fill:#f0f0f0;fill-opacity:1;stroke:none;stroke-width:0.15000001;stroke-miterlimit:4;stroke-dasharray:none;stroke-dashoffset:0;stroke-opacity:1"
       id="rect876"
       width="85.935013"
       height="5.7010484"
       x="-2.4144282"
       y="1019.0701" />
    <g
       id="g3012"
       transform="matrix(1.0558824,0,0,1.0747664,-1.4178122,-82.649674)" />
    <g
       id="g3040"
       transform="matrix(0.90067448,0,0,-0.19169842,72.928856,1203.9405)"
       style="stroke-width:1.95467925">
      <path
         clip-path="none"
         sodipodi:nodetypes="cscccccccccccccccccccsscsccccc"
         inkscape:connector-curvature="0"
         id="path232"
         d="m -83.199029,951.46529 c 0.403727,0.69652 2.142675,2.07503 2.865618,1.92567 1.045865,-0.21606 1.798211,-2.14944 2.098536,-4.03969 2.369552,-12.54453 2.424729,-5.5174 5.222574,-1.87324 1.154372,-0.39617 1.476508,-3.15791 1.878973,-3.70729 2.592872,-5.80283 3.543706,0.57605 5.130762,6.0743 1.491257,4.78635 2.879397,-5.48411 4.53842,-4.28862 1.274412,0.93175 1.27048,8.28952 2.689269,8.17568 2.653775,-0.34718 1.917908,-7.93428 3.547636,-11.73161 1.048134,-1.87844 1.547739,0.13032 1.796215,1.23237 0.349417,1.23489 1.336149,4.09662 1.863519,3.66961 1.221806,-0.36353 1.368748,-2.38742 1.574212,-3.41927 1.097512,-7.24308 1.923982,-8.82607 2.722984,-6.1742 2.993511,15.41662 4.23987,7.08025 6.565081,7.00556 2.360483,3.68668 3.24447,24.14339 5.850258,12.18318 m 0,0 c 2.25864,-15.95677 5.504133,4.61214 8.034809,-0.95402 1.812581,-5.34938 2.237513,-11.81763 4.215181,-11.94348 4.093199,3.98749 3.775373,26.31054 7.357187,13.28846 0.472354,-1.93885 1.002545,-5.61206 1.962036,-4.57026 1.780939,3.85216 2.595933,12.03617 3.8726723,10.64124 1.4030436,-5.39061 1.8714824,-10.62442 2.3540546,-12.12904 0.9279919,-2.8934 1.3250656,0.20252 2.0761008,3.66254 0.3889868,1.79206 0.6986986,4.63609 1.5944384,4.77986 0.8372396,-0.66094 1.2499452,-3.14526 1.6440933,-5.26328 0.3695548,-1.98585 0.7395875,-3.60041 0.9379814,-4.52572 1.9222203,-6.83931 2.2475799,5.61204 3.6807661,9.18765 0.7445565,2.03875 1.8954211,-1.77686 2.2466037,-2.616 2.1772828,-9.12943 2.4388536,6.02312 4.2644997,4.1884 0.2292901,-0.65932 0.5791423,-9.43421 2.2806957,-9.31764"
         style="display:inline;opacity:0.79680002;fill:none;stroke:#ff7f2a;stroke-width:0.3609924;stroke-linecap:round;stroke-linejoin:round;stroke-miterlimit:4;stroke-dasharray:none;stroke-opacity:1" />
      <g
         clip-path="none"
         id="g3060"
         style="display:inline;stroke-width:1.82212317"
         transform="matrix(0.24255542,0,0,0.26992133,-222.07878,898.91359)">
        <path
           style="display:inline;fill:none;stroke:#7e7e7e;stroke-width:1.58806074;stroke-linecap:butt;stroke-linejoin:round;stroke-miterlimit:4;stroke-dasharray:none;stroke-opacity:1"
           d="m 899.78175,192.57739 c 7.03326,-4.23232 15.33967,-0.36777 21.20714,4.63186 11.2115,7.28262 18.58461,15.46829 32.13698,19.45863 3.10356,0.79373 6.44746,0.35344 9.37194,-0.8804"
           id="path4095"
           inkscape:connector-curvature="0"
           sodipodi:nodetypes="cccc"
           inkscape:export-xdpi="90"
           inkscape:export-ydpi="90" />
        <path
           style="display:inline;fill:none;stroke:#7e7e7e;stroke-width:1.58806074;stroke-linecap:butt;stroke-linejoin:round;stroke-miterlimit:4;stroke-dasharray:none;stroke-opacity:1"
           d="m 711.55618,144.66043 c 12.23187,-3.28397 21.2543,26.06893 29.42512,33.44354 7.69158,7.27282 18.00401,43.73434 29.50717,39.61531 15.48405,-5.87727 22.99416,-23.7008 39.55316,-27.49846 12.54283,-1.20429 20.18356,5.81666 28.63922,13.3833 7.2021,6.98672 20.77984,33.05346 31.37979,28.22284 13.08175,-5.89321 17.87961,-32.81368 30.41111,-39.54615"
           id="path212"
           inkscape:connector-curvature="0"
           sodipodi:nodetypes="ccccccc"
           inkscape:export-filename="C:\Users\ticcinel\Desktop\path4095.png"
           inkscape:export-xdpi="90"
           inkscape:export-ydpi="90" />
        <path
           style="display:inline;fill:none;stroke:#7e7e7e;stroke-width:1.58806074;stroke-linecap:butt;stroke-linejoin:round;stroke-miterlimit:4;stroke-dasharray:none;stroke-opacity:1"
           d="m 571.72059,193.27611 c 5.01752,-0.27606 9.44449,-3.05162 13.26466,-6.10417"
           id="path4110"
           inkscape:connector-curvature="0"
           sodipodi:nodetypes="cc"
           inkscape:export-filename="C:\Users\ticcinel\Desktop\path4095.png"
           inkscape:export-xdpi="90"
           inkscape:export-ydpi="90" />
        <path
           style="display:inline;fill:none;stroke:#7e7e7e;stroke-width:1.59993565;stroke-linecap:butt;stroke-linejoin:round;stroke-miterlimit:4;stroke-dasharray:none;stroke-opacity:1"
           d="m 584.9885,187.12511 c 10.64453,-8.28914 14.77819,-15.75743 28.5408,-19.24418 11.58761,-1.46364 18.99163,2.83215 26.15268,10.40107 7.6798,7.48805 22.19537,17.03961 33.94144,12.81005 15.02405,-5.81073 22.90882,-41.2394 38.29775,-46.4284"
           id="path214"
           inkscape:connector-curvature="0"
           sodipodi:nodetypes="ccccc"
           inkscape:export-filename="C:\Users\ticcinel\Desktop\path4095.png"
           inkscape:export-xdpi="90"
           inkscape:export-ydpi="90" />
      </g>
    </g>
    <flowRoot
       xml:space="preserve"
       id="flowRoot4231"
       style="font-style:normal;font-weight:normal;line-height:0.01%;font-family:sans-serif;letter-spacing:0px;word-spacing:0px;fill:#aa0000;fill-opacity:1;stroke:none;stroke-width:17.54585075px;stroke-linecap:butt;stroke-linejoin:miter;stroke-opacity:1"
       transform="matrix(0.05406265,0,0,0.05406265,60.23366,996.2164)"><flowRegion
         id="flowRegion4233"
         style="stroke-width:17.54585075px"><rect
           id="rect4235"
           width="634.28571"
           height="68.571442"
           x="230"
           y="490.09"
           style="fill:#aa0000;stroke-width:17.54585075px" /></flowRegion><flowPara
         id="flowPara4237"
         style="font-size:36.99411774px;line-height:1.25;fill:#4d4d4d;stroke-width:17.54585075px">MODA <flowSpan
   style="font-size:24.66274452px"
   id="flowSpan72">v1.01</flowSpan></flowPara></flowRoot>    <flowRoot
       xml:space="preserve"
       id="flowRoot868"
       style="font-style:normal;font-weight:normal;font-size:1.33333337px;line-height:125%;font-family:sans-serif;letter-spacing:0px;word-spacing:0px;fill:#4c4c4c;fill-opacity:1;stroke:none;stroke-width:1px;stroke-linecap:butt;stroke-linejoin:miter;stroke-opacity:1"
       transform="translate(-41.597671,1027.848)"><flowRegion
         id="flowRegion870"
         style="font-size:1.33333337px;fill:#4c4c4c;fill-opacity:1"><rect
           id="rect872"
           width="62.187504"
           height="54.187504"
           x="39.125"
           y="-8.9005976"
           style="font-size:1.33333337px;fill:#4c4c4c;fill-opacity:1" /></flowRegion><flowPara
         style="font-style:normal;font-variant:normal;font-weight:normal;font-stretch:normal;font-size:1.4666667px;font-family:Arial;-inkscape-font-specification:Arial;fill:#4c4c4c;fill-opacity:1"
         id="flowPara876">Nonlinear and Biomedical Physics Group</flowPara></flowRoot>  </g>
</svg>
